<?xml version="1.0" encoding="UTF-8"?>
<svg viewBox="0 0 416.50601 433.96103" xmlns="http://www.w3.org/2000/svg">
 <defs>
  <filter id="b">
   <feGaussianBlur stdDeviation=".27077"/>
  </filter>
  <filter id="d">
   <feGaussianBlur stdDeviation="1.91753"/>
  </filter>
  <filter id="c">
   <feGaussianBlur stdDeviation="2.61705"/>
  </filter>
  <filter id="a" x="-.08245" y="-.12409" width="1.1649" height="1.2482">
   <feGaussianBlur stdDeviation=".71132"/>
  </filter>
 </defs>
 <g transform="translate(-177.46 -87.994)" fill-rule="evenodd">
  <g transform="translate(55.732 29.505)">
   <path d="m130 129.64s-3.0148-2.6859 16.993-13.484c17.42-9.4021 36.068-17.65 51.635-24.886 17.321-10.305 42.659-19.678 59.529-26.64 14.693-6.0631 21.378-5.1526 21.378-5.1526s55.467 37.704 71.554 54.755c-18.209 7.1761-12.395 3.1429-42.893 23.431-15.249 10.144-47.094 31.29-60.112 39.401-17.615 10.974-20.335 21.656-21.61 27.124-2.5489-7.2629-8.1674-12.333-22.097-22.344-9.8737-7.0957-20.823-13.121-26.797-17.342-11.95-8.4414-22.145-16.006-30.038-22.145l-17.541-12.717z" fill="#ececec" stroke="#ececec" stroke-width=".59488"/>
   <path d="m130.63 210.9c-5.9415-8.759-6.0296-26.859-7.1259-40.672 1.9733-23.461-1.1166-29.583 6.9066-41.988 5.9224 11.478 36.726 30.367 36.726 30.367s17.935 11.663 30.257 19.748c12.315 8.0811 30.842 16.084 28.505 35.066 0.7323 9.554 0.85967 17.922 1.7466 31.299s1.6565 30.449-2.4661 35.486c-16.38-4.2412-20.344-9.9301-34.239-18.922-17.424-11.276-23.725-16.967-37.129-27.67-9.4352-7.5342-12.118-9.3821-23.18-22.714z" fill="#ccc" stroke="#ccc" stroke-width=".59488"/>
   <path d="m124.49 202s-7.1855-62.173 3.0125-75.77c5.099-6.7986 37.876-23.763 69.1-37.633s66.807-26.17 66.807-26.17-5.3675 3.6572-13.428 7.8733-23.054 10.238-35.16 16.345c-24.211 12.215-47.53 22.087-59.305 28.646-11.597 6.4607-20.28 11.797-23.368 20.022-3.1296 8.3345-3.7525 22.658-3.9957 33.511-0.22745 9.8995-0.52863 18.763-0.19148 25.753 0.14563 3.0196-0.3626 12.007 8.1483 22.404-4.3517-1.0136-5.4933-3.1914-7.5885-5.771-3.467-4.2686-3.8181-9.2114-4.0306-9.2114z" stroke="#000" stroke-width=".59488"/>
   <path d="m135.27 133.6s-0.48312 1.1766 4.1695 4.9732c9.7965 7.9942 18.519 13.641 24.555 17.828 2.5132 1.7436 23.179 15.602 29.148 19.711s14.95 8.7694 18.345 11.479c3.3875 2.7033 4.2427 3.0014 5.0654 4.24 1.4166 2.1328 3.5202 4.1394 5.2083 5.5473 0 0-1.4105-3.345-2.0167-5.4082-0.41189-1.4021-2.0406-3.1295-5.4804-5.8744-3.4318-2.7387-9.9889-6.5866-15.959-10.696s-11.241-7.5333-16.007-10.747c-13.927-9.3913-36.888-23.702-47.028-31.053z"/>
   <path d="m227.65 208.6s-3.0148-18.034 16.993-28.832c17.42-9.4021 30.367-22.912 45.935-30.148 17.321-10.305 23.313-14.547 38.918-24.009 8.5534-5.1861 15.205-10.596 20.501-9.9763 5.233 2.92 1.1665 33.514 2.6311 57.007-1.605 9.8992-0.04112 14.923-12.121 25.564-13.743 12.106-12.89 13.311-25.908 23.614-16.274 12.879-20.272 18.573-34.498 28.46-16.57 11.517-38.275 24.421-51.793 28.264-1.8637-6.2489-0.65778-23.461-1.0963-50.21l0.43851-19.733z" fill="#b3b3b3" stroke="#b3b3b3" stroke-width=".59488"/>
   <path d="m343.18 116.71c-0.95621 0.23905-5.7461 1.5873-13.09 5.6451-8.3798 4.63-14.519 8.7964-22.677 13.902-4.96 3.1045-20.47 13.407-36.65 23.718-8.0901 5.1554-16.156 10.383-22.773 14.835s-11.771 8.1191-14.091 10.225c-10.47 9.5006-8.4063 20.692-8.8186 29.772-0.23301 5.1323 0.30038 16.069 0.67383 25.898 0.50357 13.254 0.7926 20.495 3.1438 27.05 1.9924-7.489 1.2567-26.329 1.2438-27.945-0.02583-3.233-0.36174-17.385-0.13111-22.465 0.41916-9.2324-2.8703-19.985 7.3341-29.245 2.2492-2.041 8.2988-6.1583 14.908-10.605s14.666-9.2444 22.754-14.398c16.175-10.308 30.709-20.788 35.676-23.897 8.1782-5.1188 13.848-9.805 22.364-14.063 1.451-0.7255 4.4937-3.2271 6.1319-4.7373l4.0014-3.6887z"/>
   <path d="m269.25 60.479c5.4734 0.90261 7.8152 0.584 12.212 1.827 5.7661 1.6299 10.384 5.73 14.27 8.1791 7.7728 4.8983 15.468 11.253 18.193 13.192 11.185 7.9595 18.12 13.686 27.395 22.613 4.4887 4.3204 8.1931 8.7042 8.5037 13.69s0.29375 10.765 0.29375 15.242c1e-5 12.845 0.2194 18.292 0.2194 32.136-1e-5 6.2973 0.49675 15.752-2.7417 23.563l2.8616-2.5078c4.1662-7.4936 2.9884-14.689 2.9885-21.055 0-13.833 0.40898-21.478 0.40898-34.336 0-4.4192 0.65001-9.9015 0.33462-14.965s-1.9279-9.3344-5.5584-12.474c-9.5453-8.2545-20.805-16.283-31.331-24.294-2.587-1.9689-10.553-7.3346-17.935-12.832-5.6389-4.1991-14.454-8.7207-18.844-9.7872-2.9583-0.71875-8.3603 0.86008-11.271 1.8078z"/>
   <path d="m299.93 232c-1.4265 1.2435-18.906 14.674-21.143 16.345-4.4741 3.3436-10.168 7.3082-16.489 11.353-4.8655 3.1135-12.701 6.7258-23.371 12.316-5.9256 2.6408-12.85 3.7234-16.222 2.872-3.2686-0.82547-7.173-1.9486-12.809-5.6768-6.4388-3.4972-14.795-8.5887-22.315-12.687s-14.069-10.484-23.262-17.356c-3.5872-2.6815-10.35-8.0863-12.896-10.152l-11.083-8.9947c0.82914 3.7073 5.915 9.8232 8.5576 11.86s12.512 12.62 19.286 18.554c6.4678 4.6819 11.958 8.0056 19.096 12.726 7.5152 4.9694 12.401 8.5584 16.599 11.577l8.324 4.3713c10.932 5.9496 18.326 3.8215 24.846 1.8489l18.371-9.8285c10.178-5.9163 21.853-15.355 26.147-18.953 7.6786-6.4322 19.311-15.26 20.401-16.838 1.9627-2.8392 4.3062-4.1296 3.7571-7.1272 0 0-4.37 2.5437-5.7966 3.7872z"/>
   <path d="m318.29 180.29c4.2499 2.1336 208.62 112.47 208.62 112.47l-34.774 44.937s-151.67-94.99-205.7-129.42c-2.3823-3.1619-2.5057-15.896 5.6308-25.402 9.0761-10.604 22.241-4.5836 26.227-2.5825z" fill="#a05a2c" stroke="#a05a2c" stroke-width=".59488"/>
   <path d="m287.08 190.82c9.8381-17.487 17.847-15.846 30.963-10.795 4.2499 2.1336 210.71 112.99 210.71 112.99l-31.81 24.236" fill="#c87137" filter="url(#d)" stroke="#c87137" stroke-width=".59488"/>
   <path d="m293.38 180.57c3.6328-2.6784 10.578-4.7869 14.246-3.9703 4.2499 2.1336 210.75 114.27 210.75 114.27l-15.476 8.3057" fill="#deaa87" filter="url(#c)" stroke="#deaa87" stroke-width=".59488"/>
   <path transform="matrix(.33718 -.34636 .32146 .4185 136.68 389.64)" d="m774.15 416.73a59.294 39.846 0 1 1 -118.59 0 59.294 39.846 0 1 1 118.59 0z" fill="#520" stroke="#520"/>
   <path d="m302.71 175.56s-14.981 2.5613-18.261 12.255c-3.2465 9.5965-2.6355 15.029-2.6355 15.029s0.33895 4.6752 1.8323 6.8231c5.8018 4.399 16.554 11.061 16.554 11.061l95.401 62.457 96.219 59.78s4.7327 3.7 12.237 3.1678c2.8629-0.20302 10.376-2.004 17.098-7.696l2.0015-4.0213c-10.463 10.487-25.381 5.9051-25.5 5.8726l-210.85-133.94c-1.2069-1.642-2.3722-7.2544 0.74925-16.481 3.1508-9.3134 15.373-13.743 15.373-13.743l-0.2169-0.5618z"/>
   <path d="m308.86 175.7-2.8663 0.32411c3.7959 0.89337 7.2342 2.2975 11.506 4.1692 0.31195 0.13667 1.4438 0.72032 3.2596 1.671s4.3147 2.2867 7.4093 3.9267c6.1891 3.28 15.64 8.431 25.742 13.822 20.205 10.782 45.799 24.983 72.062 39.05 52.504 28.122 94.984 50.983 94.94 50.958-1.4111-0.81343 5.0234 2.0421 8.7712 5.0622 1.4031 1.1306 4.7823 6.1425 4.6005 12.052-0.33633 10.934-3.3446 14.565-10.06 26.956 0 0 1.7489-0.69912 2.6646-1.6762 4.3338-4.99 7.457-8.3895 9.6143-15.199 1.5789-4.984 2.1533-10.901 1.4065-13.997-1.4937-6.192-3.027-7.8577-6.0606-11.333-3.0782-3.5263-50.657-28.435-103.18-56.569-26.263-14.067-54.709-29.154-74.914-39.937-10.103-5.3913-18.259-8.3553-24.449-11.636-3.095-1.6402-6.6657-3.4848-8.4832-4.4364s-6.506-1.6024-11.958-3.208z"/>
   <path d="m514.12 289.95c-4.221 0.94404-13.844 2.6255-19.767 9.6982-5.8857 7.029-6.6199 9.5906-7.8835 13.756-1.236 4.0745-0.57487 9.0897-0.13664 12.571 0.21911 1.7408 1.5046 4.6663 1.9993 6.0587 0.57604 1.6214 1.2359 1.7378 1.2359 1.7378-1.2161-3.6749-1.3452-10.519-0.35428-15.381 0.97767-4.7973 3.7598-10.464 6.5311-14.056 2.7996-3.6289 7.7988-8.9736 21.44-14.549l-3.0654 0.16432z"/>
  </g>
  <g transform="matrix(1.1378 0 0 1 -108.99 -211.05)">
   <g transform="matrix(.7464 .42189 .66549 -.9636 -298.12 977.8)">
    <path d="m309.88 542.21c10.282 1.6071 6.546 3.7195 6.4491 3.8681-2.3159 3.5538-4.3324 12.646-5.8747 17.934-1.5708 5.3859-3.5382 20.215-10.58 20.708-14.607 1.0183-19.278-10.489-16.532-21.069 3.4551-13.288 16.387-23.027 26.538-21.441z" fill="#c8b7b7"/>
    <path d="m314.27 544.69c7.6903 0.19631 11.308 8.9527 8.1189 19.533-1.6242 5.3883-11.858 18.753-19.548 18.557s-11.303-8.6922-8.1728-19.275 11.912-19.012 19.602-18.816z" fill="#6c5353" stroke="#6c5353" stroke-width=".51575"/>
    <path transform="matrix(.20388 -.68472 .47108 .1063 101.58 677.92)" d="m209.58 301.9c1.1652 3.694 0.80096 5.9427-0.21832 7.4851s-3.2751 2.4507-5.8928 3.464c-5.2864 2.0462-6.2827 4.6255-6.5974-2.4913-0.16592-3.7521 7.4154-8.0746 5.1549-7.7617-2.9843 1.3162 5.2088-8.1298 7.5536-0.69611z" fill="#f4d7d7" filter="url(#a)"/>
    <path transform="matrix(.10622 -.50971 .56139 -.025789 86.017 726.69)" d="m329.82 303.9c4.8994 2.3726 9.1037 7.2167 11.896 15.338s1.2251 18.439-1.8977 25.468c-1.0374-6.3772-1.4775-6.7731-4.7672-12.127-1.0375-1.6886-4.6456-4.9767-4.6567-5.3411-0.06892-2.269-0.23201-18.925-0.57387-23.338z" fill="#ac9393" filter="url(#b)"/>
    <path d="m291.64 549.61c1.8524-2.5585 5.0183-4.8264 9.8742-6.4588s10.482-1.1 14.096 0.3105c-3.6903 0.69321-3.9592 0.92777-7.3143 2.7426-1.0581 0.57239-3.2873 2.4963-3.493 2.5113-1.2811 0.09365-10.649 0.60631-13.163 0.89438z" fill="#ac9393"/>
    <path d="m293.8 562.56c-1.1231 3.8684-2.0933 7.8292-1.5346 11.955 0.3996 2.9506 2.245 6.7881 8.301 8.2276-4.8592-3.4054-4.9104-7.9046-4.7446-11.062 0.15726-2.9931 1.5683-7.8931 3.1992-11.676 2.1546-4.9979 6.6753-12.295 13.161-13.892 3.7981-0.93569 6.2723 0.25406 10.625 4.4237-1.9713-4.4489-5.64-7.8762-9.6782-7.2518s-8.141 2.3403-12.34 7.1816c-1.9576 2.257-5.8661 8.2264-6.9893 12.095z"/>
    <path d="m284.43 558.67c2.7786-6.7723 9.6142-12.564 15.064-14.937 5.7937-2.5234 10.203-2.3778 13.747-0.97752-5.7554-0.36651-8.8209 0.7895-12.449 2.7974-2.282 1.263-10.451 6.8693-12.877 14.778-1.7942 5.847-2.3392 12.175-0.3138 16.336 2.0487 4.2094 8.0644 6.8236 11.863 6.7688 3.1099-0.04768 5.4866-0.56913 10.103-2.8877-4.1333 3.1713-8.2416 5.1571-12.329 5.134-6.2432-0.03538-11.855-3.2535-14.052-9.0405-1.9564-5.1525-1.5268-11.218 1.2439-17.971z"/>
   </g>
   <path d="m304.58 561.88 2.4654-3.8216 6.0106-5.2646 30.187 7.2913 36.684 12.525 71.592 24.339 21.768 10.162 21.768 10.162-50.198-13.64-140.28-41.754z" fill="#f4d7d7" stroke="#f4d7d7" stroke-width=".53236"/>
   <path d="m304.79 561.4-2.2242 7.8637 0.44851 8.512 28.316 8.181 43.592 11.526 52 9.6912 39.998 7.0863 28.497 2.9035-51.45-13.667-139.18-42.096z" fill="#ac9393" stroke="#ac9393" stroke-width=".53236"/>
   <path d="m490.95 614.44c-12.464-5.5336-33.695-16.716-43.261-20.32-15.123-5.6974-51.24-16.98-65.918-22.47-18.229-6.817-62.795-20.117-68.732-19.536-4.8759 1.7077-6.6786 6.8475-6.6786 6.8475 1.4014-0.29862 3.0121-1.7917 3.829-2.5224 2.6247-2.3479 3.997-1.4281 5.5296-1.2382 2.6015-0.06861 53.64 17.068 62.734 20.469 14.737 5.5112 53.681 17.42 68.268 23.726 7.7442 3.3478 21.472 6.7652 23.039 7.7757m-30.869-0.26111-40.032-8.051c-19.325-3.1716-88.513-21.158-92.068-23.262-1.3027-0.91517-2.6603-1.1417-1.6766-7.1743 0.64299-3.9431 0.15423-4.6322-1.2112-5.9004 0 0-6.5465 15.902 1.5516 17.979 18.235 6.8834 74.551 20.794 113.24 27.143 17.74 3.506 49.463 8.2912 80.015 10.35 0 0-13.946-3.4919-23.139-5.1467"/>
   <path d="m308.48 564.89c83.022 24.445 148.81 42.332 148.81 42.332l-35.123-12.791s-30.827-9.2292-113.86-33.677l0.17718 4.1353z"/>
  </g>
  <g transform="matrix(.57135 0 0 .57135 188.71 118.93)">
   <path d="m345.06 333.47c-4.1191 19.095-7.9635 13.167-8.2491 13.049-6.8289-2.8332-24.655-3.0525-34.99-3.8445-10.526-0.80663-39.721 1.2127-40.056-11.268-0.68798-25.889 22.531-38.603 43.239-37.63 26.008 1.2339 44.123 20.841 40.056 39.694z" fill="#c8b7b7"/>
   <path transform="matrix(.94916 .076343 -.076936 .98267 43.407 -18.672)" d="m339.84 340.95c0 14.15-17.702 25.487-39.487 25.377-11.094-0.05578-38.935-11.525-38.935-25.675s17.17-25.336 38.956-25.336 39.466 11.484 39.466 25.634z" fill="#6c5353" stroke="#6c5353"/>
   <path d="m309 335.25 7.3456 3.0018 9.8815 8.8371-17.19 57.024-28.148 70.671-54.727 137.88-22.111 42.959-22.111 42.959 31.588-95.394 95.473-267.94z" fill="#ac9393" stroke="#ac9393"/>
   <path d="m309.95 335.43-15.375-1.053-16.902 3.9969-18.782 53.993-26.798 82.72-23.929 97.155-17.677 74.594-8.3445 52.34 31.755-97.657 96.051-266.09z" fill="#f4d7d7" stroke="#f4d7d7"/>
   <path d="m187.95 690.12c12.095-24.49 36.179-66.866 44.188-85.421 12.662-29.334 38.298-98.52 50.507-126.98 15.162-35.339 45.562-120.48 44.952-130.94-2.9391-8.1295-12.956-9.4454-12.956-9.4454 0.464 2.4086 3.275 4.7459 4.6482 5.9411 4.4121 3.8405 2.4651 6.6535 1.9496 9.481-0.1008 4.6531-38.691 102.87-46.256 120.5-12.258 28.57-39.391 103.08-53.209 131.67-7.3363 15.183-15.355 41.153-17.499 44.35m3.3262-55.616 19.591-75.016c8.041-35.945 49.964-167.12 54.456-174.3 1.9314-2.6859 2.5035-5.2125 14.364-5.7042 7.7523-0.3214 9.1617-1.4587 11.798-4.3898 0 0-30.904-5.8141-35.755 9.5288-15.294 35.376-47.974 141.88-64.071 213.83-8.5592 33.22-20.925 92.068-27.782 147.79 0 0 8.1859-26.391 12.301-43.545"/>
   <path d="m302.69 343.37c-55.976 158.48-97.395 283.5-97.395 283.5l28.533-67.964s21.087-58.903 77.07-217.4l-8.2076 1.8685z"/>
   <path transform="matrix(1.3378 .11006 -.25343 .88708 95.2 9.7063)" d="m209.58 301.9c1.1652 3.694 0.80096 5.9427-0.21832 7.4851s-3.2751 2.4507-5.8928 3.464c-5.2864 2.0462-6.2827 4.6255-6.5974-2.4913-0.16592-3.7521 7.4154-8.0746 5.1549-7.7617-2.9843 1.3162 5.2088-8.1298 7.5536-0.69611z" fill="#f4d7d7" filter="url(#a)"/>
   <path d="m329.82 303.9c4.8994 2.3726 9.1037 7.2167 11.896 15.338s1.2251 18.439-1.8977 25.468c-1.0374-6.3772-1.4775-6.7731-4.7672-12.127-1.0375-1.6886-4.6456-4.9767-4.6567-5.3411-0.06892-2.269-0.23201-18.925-0.57387-23.338z" fill="#ac9393" filter="url(#b)"/>
   <path d="m332.06 303.45c4.8994 2.3726 9.1037 7.2167 11.896 15.338s1.2251 18.439-1.8977 25.468c-1.0374-6.3772-1.4775-6.7731-4.7672-12.127-1.0375-1.6886-4.6456-4.9767-4.6567-5.3411-0.06892-2.269-0.23201-18.925-0.57387-23.338z" fill="#ac9393"/>
   <path d="m306.2 312.2c-7.5605-0.57018-15.318-0.83057-23.541 1.7206-5.881 1.8245-13.651 6.5818-17.053 18.013 7.1878-10.016 16.105-11.794 22.344-12.679 5.9146-0.83895 15.492-0.13754 22.838 1.3778 9.7041 2.002 23.747 7.3978 26.321 18.463 1.5078 6.4803-1.074 11.376-9.7295 20.768 8.992-5.2129 16.115-13.096 15.246-20.124s-3.895-13.765-13.103-19.502c-4.2927-2.6748-15.762-7.4672-23.322-8.0374z"/>
   <path d="m314.77 293.88c13.162 2.4593 24.012 12.583 28.218 21.495 4.4712 9.4744 3.7816 17.458 0.68539 24.358 1.2497-10.489-0.76124-15.569-4.4084-21.341-2.2942-3.6309-12.656-16.221-28.102-17.622-11.419-1.0355-23.904 0.35599-32.332 5.5583-8.5246 5.2622-14.25 17.061-14.488 23.872-0.18855 5.5753 0.62811 9.6545 4.8009 17.088-5.9058-6.2453-9.4656-12.89-9.0478-20.25 0.63819-11.242 7.5235-22.541 19.187-28.661 10.384-5.4498 22.361-6.9506 35.486-4.4982z"/>
  </g>
 </g>
</svg>
