<?xml version="1.0" encoding="UTF-8" standalone="no"?>
<!-- Created with Inkscape (http://www.inkscape.org/) -->

<svg
   xmlns:dc="http://purl.org/dc/elements/1.1/"
   xmlns:cc="http://creativecommons.org/ns#"
   xmlns:rdf="http://www.w3.org/1999/02/22-rdf-syntax-ns#"
   xmlns:svg="http://www.w3.org/2000/svg"
   xmlns="http://www.w3.org/2000/svg"
   xmlns:sodipodi="http://sodipodi.sourceforge.net/DTD/sodipodi-0.dtd"
   xmlns:inkscape="http://www.inkscape.org/namespaces/inkscape"
   width="503.00003"
   height="415.95581"
   viewBox="0 0 133.08542 110.05498"
   version="1.1"
   id="svg5165"
   inkscape:version="0.92.4 (5da689c313, 2019-01-14)"
   sodipodi:docname="body_cell_3_large.svg"
   inkscape:export-filename="C:\Users\lemon\Documents\GenomeEvolution\Assets\Images\Cells\body\body_cell_3_large.png"
   inkscape:export-xdpi="160"
   inkscape:export-ydpi="160">
  <defs
     id="defs5159" />
  <sodipodi:namedview
     id="base"
     pagecolor="#ffffff"
     bordercolor="#666666"
     borderopacity="1.0"
     inkscape:pageopacity="0.0"
     inkscape:pageshadow="2"
     inkscape:zoom="1.4142136"
     inkscape:cx="75.192566"
     inkscape:cy="167.7215"
     inkscape:document-units="px"
     inkscape:current-layer="layer1"
     showgrid="false"
     units="px"
     inkscape:pagecheckerboard="true"
     inkscape:window-width="1920"
     inkscape:window-height="1017"
     inkscape:window-x="-8"
     inkscape:window-y="-8"
     inkscape:window-maximized="1"
     fit-margin-top="0"
     fit-margin-left="0"
     fit-margin-right="0"
     fit-margin-bottom="0" />
  <metadata
     id="metadata5162">
    <rdf:RDF>
      <cc:Work
         rdf:about="">
        <dc:format>image/svg+xml</dc:format>
        <dc:type
           rdf:resource="http://purl.org/dc/dcmitype/StillImage" />
        <dc:title />
      </cc:Work>
    </rdf:RDF>
  </metadata>
  <g
     inkscape:label="Layer 1"
     inkscape:groupmode="layer"
     id="layer1"
     transform="translate(-4.0174576,-182.88053)">
    <path
       style="fill:#0000f9;fill-opacity:0.39215686;stroke:#000000;stroke-width:4.08384228;stroke-linecap:butt;stroke-linejoin:round;stroke-miterlimit:4;stroke-dasharray:none;stroke-opacity:1;paint-order:normal"
       d="m 9.6247007,212.66216 c 4.1088133,-4.38277 7.0747033,-1.69361 11.3445863,-6.31685 4.769881,-5.15668 34.89609,3.11363 35.451835,3.35179 1.558333,0.39436 5.51541,3.71397 8.121687,-3.22291 2.739279,-7.29087 15.244288,-19.86916 15.244288,-19.86916 0.761486,-0.60042 10.150609,-9.79204 4.86657,22.06078 -5.282358,31.8427 5.930125,11.86025 8.766274,6.57469 2.836142,-5.28556 10.828919,-16.75909 10.828919,-16.75909 0.74297,-1.25378 6.59023,0.65908 9.53977,-0.77345 3.09397,-1.67593 5.69402,-6.2169 9.0241,-5.41452 3.32547,0.80124 12.38123,2.55974 12.24699,4.89884 -0.12895,2.3205 -2.19156,7.73494 -5.15663,6.83253 -2.96506,-0.9024 6.18796,4.76988 -8.37952,11.98914 -14.55048,7.22234 -10.90668,10.06439 -10.82892,10.44223 0.88459,1.64615 8.17392,-0.0386 5.41446,6.18789 -3.25784,8.50546 10.36444,-1.76854 -1.03132,10.1844 -6.61806,7.63562 -9.235,16.81674 -0.64457,13.53611 0,0 18.82168,-5.02772 17.79036,2.32049 -1.03133,7.34822 -10.57109,5.02772 -11.60241,5.15668 -1.03133,0.12888 -5.47893,2.61052 0.709,7.50936 11.50573,8.0894 -27.652425,-0.54794 -27.652425,-0.54794 -1.736129,-0.34729 -6.091576,-0.0232 -3.222889,1.80481 4.650711,2.65335 9.633764,2.22079 7.734939,7.60606 -2.06778,5.86445 -18.391214,-5.70084 -18.692783,-6.18797 -0.06328,0.19139 -5.822428,-6.23967 -8.37952,-5.41444 -2.707229,0.77344 -7.21928,4.89876 -5.156632,7.73494 2.062656,2.8361 -2.320482,1.80481 -2.320482,1.80481 -0.458882,0.50087 -0.303375,4.96027 -2.062655,4.38315 -1.933735,-0.38664 -1.933735,-5.5434 -4.769877,-6.31692 -2.855906,-0.78202 -3.734598,11.24516 -3.738557,11.73137 -0.529189,9.19833 -6.89247,-5.04408 -11.215673,-15.59884 -3.507535,-8.56334 -7.442407,1.47219 -8.360187,4.15109 -2.190116,6.39272 -12.135611,10.62606 -13.426576,4.48625 -2.521298,-6.25989 1.799463,-18.6354 12.246997,-25.78315 6.904085,-9.72258 -13.763906,-4.13759 -16.372301,-12.89154 -2.695799,-9.0473 -2.871357,-11.77737 -5.027714,-12.63378 -2.578685,-0.79976 -8.7711174,-5.29227 -1.2891575,-17.01685 z"
       id="path5745"
       inkscape:connector-curvature="0"
       sodipodi:nodetypes="cccscscccscsccccccccccscccccccssccsccc" />
  </g>
</svg>
