<?xml version="1.0" encoding="UTF-8" standalone="no"?>
<!-- Created with Inkscape (http://www.inkscape.org/) -->

<svg
   xmlns:dc="http://purl.org/dc/elements/1.1/"
   xmlns:cc="http://creativecommons.org/ns#"
   xmlns:rdf="http://www.w3.org/1999/02/22-rdf-syntax-ns#"
   xmlns:svg="http://www.w3.org/2000/svg"
   xmlns="http://www.w3.org/2000/svg"
   xmlns:sodipodi="http://sodipodi.sourceforge.net/DTD/sodipodi-0.dtd"
   xmlns:inkscape="http://www.inkscape.org/namespaces/inkscape"
   width="96"
   height="82"
   viewBox="0 0 25.399999 21.695834"
   version="1.1"
   id="svg5753"
   inkscape:version="0.92.4 (5da689c313, 2019-01-14)"
   sodipodi:docname="cell_4.svg">
  <defs
     id="defs5747" />
  <sodipodi:namedview
     id="base"
     pagecolor="#ffffff"
     bordercolor="#666666"
     borderopacity="1.0"
     inkscape:pageopacity="0.0"
     inkscape:pageshadow="2"
     inkscape:zoom="11.2"
     inkscape:cx="45.116013"
     inkscape:cy="36.919841"
     inkscape:document-units="px"
     inkscape:current-layer="layer1"
     showgrid="false"
     units="px"
     inkscape:pagecheckerboard="true"
     inkscape:window-width="1920"
     inkscape:window-height="1017"
     inkscape:window-x="-8"
     inkscape:window-y="-8"
     inkscape:window-maximized="1" />
  <metadata
     id="metadata5750">
    <rdf:RDF>
      <cc:Work
         rdf:about="">
        <dc:format>image/svg+xml</dc:format>
        <dc:type
           rdf:resource="http://purl.org/dc/dcmitype/StillImage" />
        <dc:title></dc:title>
      </cc:Work>
    </rdf:RDF>
  </metadata>
  <g
     inkscape:label="Layer 1"
     inkscape:groupmode="layer"
     id="layer1"
     transform="translate(0,-275.30416)">
    <path
       style="fill:#ffffea;stroke:#000000;stroke-width:0.26458332px;stroke-linecap:butt;stroke-linejoin:miter;stroke-opacity:1;fill-opacity:0.39215687"
       d="m 4.0382753,282.93493 c 0.1281187,-0.42155 0.9457428,0.0221 1.2904107,0.23387 0.5123025,0.29734 0.9624792,-0.51249 1.8541826,-0.46773 1.1915728,0.0725 2.3608901,0.63456 3.5413214,0.95215 0.590548,0.16814 1.058525,-0.41958 1.586913,-0.63476 0.437223,-0.15527 0.859194,-0.0512 1.286234,-0.0334 0.365823,0.0217 0.47831,0.22777 0.818513,0.15034 0.07448,-0.0226 0.94555,-0.81108 3.57473,-0.91874 0.253649,0.0224 0.364844,1e-5 0.751695,0.26727 0.504316,0.33155 -0.182342,-0.0681 1.837478,0.18374 0.155153,0.0455 0.62165,0.75179 0.584653,1.30294 -0.02455,0.36387 -0.879629,0.6955 -1.436574,0.95215 -1.175733,0.54594 -2.326944,-0.67421 -3.345045,0.33826 -0.56871,0.49272 1.019909,1.12846 1.574384,1.69967 0.140506,0.13755 0.184653,0.43694 0.534539,0.7517 0.986326,0.8721 2.226004,0.97622 1.703844,1.921 -0.169408,0.34842 -0.489811,0.54585 -0.835218,0.71828 0.807501,1.37998 0.0186,1.45382 -0.167043,2.02123 -0.216654,0.42706 -1.864824,-0.29005 -2.004522,-0.50113 l -1.135895,-1.60362 c -1.15962,-1.01961 -2.385127,-1.96272 -2.889852,-2.43883 -0.160516,-0.20875 -1.835435,-0.0851 -1.770661,0.16704 -0.03794,0.3447 -0.05923,0.68109 -0.11693,1.03567 -0.121525,0.58772 -0.208096,1.50637 -0.534539,1.43657 -0.280213,-0.0624 -0.674938,-0.51187 -0.9730282,-0.47607 -2.0847945,0.39326 -1.1261512,-0.84914 -1.7664844,-1.26118 -0.8852821,-0.82562 -0.4188726,-1.00814 -0.7015826,-1.33635 -0.8739078,-0.70818 -1.6145181,-1.6089 -2.2884953,-2.60587 -0.3030996,-0.3209 -0.5301324,0.22284 -0.8519215,-0.41761 -0.2157001,-0.54809 -0.2945006,-0.76596 -0.1211067,-1.43659 z"
       id="path6320"
       inkscape:connector-curvature="0"
       sodipodi:nodetypes="cccccccccccccccccccccccccccccc" />
  </g>
</svg>
