<?xml version="1.0" encoding="UTF-8" standalone="no"?>
<!-- Created with Inkscape (http://www.inkscape.org/) -->

<svg
   xmlns:dc="http://purl.org/dc/elements/1.1/"
   xmlns:cc="http://creativecommons.org/ns#"
   xmlns:rdf="http://www.w3.org/1999/02/22-rdf-syntax-ns#"
   xmlns:svg="http://www.w3.org/2000/svg"
   xmlns="http://www.w3.org/2000/svg"
   xmlns:sodipodi="http://sodipodi.sourceforge.net/DTD/sodipodi-0.dtd"
   xmlns:inkscape="http://www.inkscape.org/namespaces/inkscape"
   width="96"
   height="82"
   viewBox="0 0 25.399999 21.695834"
   version="1.1"
   id="svg5165"
   inkscape:version="0.92.4 (5da689c313, 2019-01-14)"
   sodipodi:docname="body_cell_3.svg"
   inkscape:export-filename="C:\Users\lemon\Documents\GenomeEvolution\Assets\Images\Cells\body\body_cell_3.png"
   inkscape:export-xdpi="160"
   inkscape:export-ydpi="160">
  <defs
     id="defs5159" />
  <sodipodi:namedview
     id="base"
     pagecolor="#ffffff"
     bordercolor="#666666"
     borderopacity="1.0"
     inkscape:pageopacity="0.0"
     inkscape:pageshadow="2"
     inkscape:zoom="8.0000001"
     inkscape:cx="25.682197"
     inkscape:cy="31.839207"
     inkscape:document-units="px"
     inkscape:current-layer="layer1"
     showgrid="false"
     units="px"
     inkscape:pagecheckerboard="true"
     inkscape:window-width="1036"
     inkscape:window-height="1008"
     inkscape:window-x="-7"
     inkscape:window-y="0"
     inkscape:window-maximized="0" />
  <metadata
     id="metadata5162">
    <rdf:RDF>
      <cc:Work
         rdf:about="">
        <dc:format>image/svg+xml</dc:format>
        <dc:type
           rdf:resource="http://purl.org/dc/dcmitype/StillImage" />
        <dc:title />
      </cc:Work>
    </rdf:RDF>
  </metadata>
  <g
     inkscape:label="Layer 1"
     inkscape:groupmode="layer"
     id="layer1"
     transform="translate(0,-275.30416)">
    <path
       style="fill:#0000f9;fill-opacity:0.39215686;stroke:#000000;stroke-width:0.52916664;stroke-linecap:butt;stroke-linejoin:round;stroke-miterlimit:4;stroke-dasharray:none;stroke-opacity:1;paint-order:normal"
       d="m 4.7440341,282.53403 c 0.5324022,-0.5679 0.9167094,-0.21945 1.4699824,-0.81851 0.6180606,-0.66818 4.5216845,0.40345 4.5936955,0.43431 0.201922,0.0511 0.714663,0.48124 1.052373,-0.41761 0.354944,-0.94472 1.975289,-2.57456 1.975289,-2.57456 0.09867,-0.0778 1.315272,-1.26881 0.630589,2.85854 -0.684465,4.12604 0.7684,1.5368 1.135896,0.85192 0.367495,-0.68488 1.403165,-2.17157 1.403165,-2.17157 0.09627,-0.16246 0.853933,0.0854 1.236121,-0.10022 0.400904,-0.21716 0.737807,-0.80556 1.169304,-0.70159 0.4309,0.10382 1.604307,0.33168 1.586913,0.63477 -0.01671,0.30068 -0.283974,1.00226 -0.668174,0.88533 -0.3842,-0.11693 0.801809,0.61806 -1.085782,1.5535 -1.885389,0.93584 -1.413241,1.3041 -1.403165,1.35306 0.114622,0.2133 1.059141,-0.005 0.701582,0.8018 -0.422136,1.1021 1.34298,-0.22916 -0.133634,1.31965 -0.857539,0.98939 -1.196631,2.17904 -0.08352,1.75395 0,0 2.438832,-0.65147 2.305198,0.30068 -0.133635,0.95215 -1.369757,0.65147 -1.503391,0.66818 -0.133635,0.0167 -0.709935,0.33826 0.09187,0.97303 1.490863,1.04819 -3.583082,-0.071 -3.583082,-0.071 -0.22496,-0.045 -0.78932,-0.003 -0.417608,0.23386 0.602619,0.34381 1.248301,0.28776 1.00226,0.98556 -0.267934,0.75989 -2.383054,-0.73869 -2.42213,-0.80181 -0.0082,0.0248 -0.754445,-0.80851 -1.085782,-0.70158 -0.350791,0.10022 -0.935443,0.63476 -0.668174,1.00226 0.26727,0.36749 -0.300678,0.23386 -0.300678,0.23386 -0.05946,0.0649 -0.03931,0.64273 -0.26727,0.56795 -0.250565,-0.0501 -0.250565,-0.71829 -0.61806,-0.81852 -0.370056,-0.10133 -0.483913,1.4571 -0.484426,1.5201 -0.06857,1.19188 -0.8930965,-0.65359 -1.4532785,-2.02123 -0.4544912,-1.1096 -0.7685921,0.34918 -1.0832768,0.53788 -0.57159,0.34275 -1.0629878,0.52792 -1.7397576,0.58131 -0.8312089,-0.3051 -0.3216216,-2.03017 1.5869128,-3.34087 0.8946015,-1.25981 -1.7834674,-0.53613 -2.1214519,-1.67043 -0.34931,-1.17231 -0.372058,-1.52606 -0.6514694,-1.63703 -0.3341349,-0.10363 -1.1365235,-0.68575 -0.1670435,-2.20497 z"
       id="path5745"
       inkscape:connector-curvature="0"
       sodipodi:nodetypes="cccscscccscsccccccccccscccccccssccsccc" />
  </g>
</svg>
